<!DOCTYPE svg PUBLIC "-//W3C//DTD SVG 1.1//EN" "http://www.w3.org/Graphics/SVG/1.1/DTD/svg11.dtd">
<!-- Uploaded to: SVG Repo, www.svgrepo.com, Transformed by: SVG Repo Mixer Tools -->
<svg width="800px" height="800px" viewBox="0 0 24 24" fill="none" xmlns="http://www.w3.org/2000/svg">
<g id="SVGRepo_bgCarrier" stroke-width="0"/>
<g id="SVGRepo_tracerCarrier" stroke-linecap="round" stroke-linejoin="round"/>
<g id="SVGRepo_iconCarrier"> <path d="M4 7.00005L10.2 11.65C11.2667 12.45 12.7333 12.45 13.8 11.65L20 7" stroke="#000000" stroke-width="0.72" stroke-linecap="round" stroke-linejoin="round"/> <path d="M12 19H5C3.89543 19 3 18.1046 3 17V7C3 5.89543 3.89543 5 5 5H19C20.1046 5 21 5.89543 21 7V11" stroke="#000000" stroke-width="0.72" stroke-linecap="round"/> <path d="M15.5147 14.5147C14.8284 15.201 14.8284 16.3137 15.5147 17L18 19.4853L20.4853 17.0001C21.1716 16.3138 21.1716 15.2011 20.4853 14.5148C19.799 13.8285 18.6863 13.8285 18 14.5147C17.3138 13.8285 16.201 13.8284 15.5147 14.5147Z" stroke="#000000" stroke-width="0.72" stroke-linecap="round" stroke-linejoin="round"/> </g>
</svg>